<svg xmlns="http://www.w3.org/2000/svg" xmlns:xlink="http://www.w3.org/1999/xlink" width="1500" zoomAndPan="magnify" viewBox="0 0 1125 262.499992" height="350" preserveAspectRatio="xMidYMid meet" version="1.0"><defs><g/><clipPath id="45eba40ae7"><path d="M 1.070312 0 L 1114 0 L 1114 262 L 1.070312 262 Z M 1.070312 0 " clip-rule="nonzero"/></clipPath><clipPath id="2603eb33a3"><path d="M 10 0 L 152 0 L 152 198 L 10 198 Z M 10 0 " clip-rule="nonzero"/></clipPath><clipPath id="85112c5cfb"><rect x="0" width="1113" y="0" height="262"/></clipPath></defs><g clip-path="url(#45eba40ae7)"><g transform="matrix(1, 0, 0, 1, 1, 0)"><g clip-path="url(#85112c5cfb)"><g clip-path="url(#2603eb33a3)"><g fill="#2a9d8f" fill-opacity="1"><g transform="translate(-3.199248, 194.694814)"><g><path d="M 83.46875 2.765625 C 73.144531 2.765625 64.941406 2.023438 58.859375 0.546875 C 52.785156 -0.921875 47.816406 -1.65625 43.953125 -1.65625 C 40.265625 -1.65625 37.679688 -0.96875 36.203125 0.40625 C 34.734375 1.789062 32.707031 2.484375 30.125 2.484375 C 27.726562 2.484375 25.65625 1.425781 23.90625 -0.6875 C 22.15625 -2.8125 20.820312 -6.726562 19.90625 -12.4375 C 18.976562 -17.96875 18.007812 -23.957031 17 -30.40625 C 15.988281 -36.851562 15.113281 -44.039062 14.375 -51.96875 C 14.1875 -55.28125 14.414062 -57.945312 15.0625 -59.96875 C 15.707031 -62 17.226562 -63.015625 19.625 -63.015625 C 21.832031 -63.015625 23.765625 -62.1875 25.421875 -60.53125 C 27.085938 -58.875 28.929688 -56.203125 30.953125 -52.515625 C 33.722656 -46.804688 37.363281 -40.910156 41.875 -34.828125 C 46.382812 -28.742188 52.28125 -23.628906 59.5625 -19.484375 C 66.84375 -15.335938 75.828125 -13.171875 86.515625 -12.984375 C 98.304688 -12.984375 106.960938 -15.976562 112.484375 -21.96875 C 118.015625 -27.957031 120.875 -34.726562 121.0625 -42.28125 C 121.425781 -49.46875 119.304688 -55.503906 114.703125 -60.390625 C 110.097656 -65.273438 104.15625 -69.601562 96.875 -73.375 C 89.59375 -77.15625 82.082031 -80.890625 74.34375 -84.578125 C 66.976562 -88.265625 59.929688 -91.859375 53.203125 -95.359375 C 46.472656 -98.859375 40.4375 -102.769531 35.09375 -107.09375 C 29.757812 -111.425781 25.570312 -116.492188 22.53125 -122.296875 C 19.488281 -128.109375 17.96875 -135.160156 17.96875 -143.453125 C 17.96875 -152.847656 20.640625 -161.503906 25.984375 -169.421875 C 31.328125 -177.347656 39.019531 -183.707031 49.0625 -188.5 C 59.101562 -193.289062 71.035156 -195.6875 84.859375 -195.6875 C 91.304688 -195.6875 97.15625 -195.132812 102.40625 -194.03125 C 107.65625 -192.925781 112.03125 -192.375 115.53125 -192.375 C 118.84375 -192.375 121.234375 -192.925781 122.703125 -194.03125 C 124.179688 -195.132812 126.117188 -195.6875 128.515625 -195.6875 C 131.097656 -195.6875 133.125 -194.765625 134.59375 -192.921875 C 136.070312 -191.078125 137.457031 -187.207031 138.75 -181.3125 C 139.664062 -176.707031 140.675781 -171.773438 141.78125 -166.515625 C 142.894531 -161.265625 143.816406 -155.414062 144.546875 -148.96875 C 144.921875 -145.84375 144.738281 -143.265625 144 -141.234375 C 143.257812 -139.203125 141.601562 -138.1875 139.03125 -138.1875 C 135.519531 -138.1875 131.554688 -141.597656 127.140625 -148.421875 C 124.191406 -153.023438 120.457031 -157.8125 115.9375 -162.78125 C 111.425781 -167.757812 106.222656 -172 100.328125 -175.5 C 94.429688 -179.007812 87.613281 -180.765625 79.875 -180.765625 C 69.738281 -180.765625 62 -178.226562 56.65625 -173.15625 C 51.3125 -168.09375 48.640625 -161.691406 48.640625 -153.953125 C 48.640625 -147.503906 50.53125 -142.066406 54.3125 -137.640625 C 58.09375 -133.222656 63.4375 -129.125 70.34375 -125.34375 C 77.25 -121.5625 85.21875 -117.367188 94.25 -112.765625 C 101.988281 -108.898438 109.40625 -105.210938 116.5 -101.703125 C 123.59375 -98.203125 129.898438 -94.378906 135.421875 -90.234375 C 140.953125 -86.085938 145.421875 -81.203125 148.828125 -75.578125 C 152.242188 -69.960938 154.039062 -63.101562 154.21875 -55 C 154.59375 -43.019531 151.414062 -32.742188 144.6875 -24.171875 C 137.96875 -15.609375 129.171875 -9.023438 118.296875 -4.421875 C 107.421875 0.179688 95.8125 2.578125 83.46875 2.765625 Z M 83.46875 2.765625 "/></g></g></g></g><g fill="#2a9d8f" fill-opacity="1"><g transform="translate(148.249342, 194.694814)"><g><path d="M 31.515625 -153.390625 C 26.898438 -153.578125 23.253906 -155.144531 20.578125 -158.09375 C 17.910156 -161.039062 16.671875 -164.539062 16.859375 -168.59375 C 17.046875 -172.46875 18.425781 -176.242188 21 -179.921875 C 23.582031 -183.609375 26.898438 -186.601562 30.953125 -188.90625 C 35.003906 -191.21875 39.148438 -192.1875 43.390625 -191.8125 C 47.628906 -191.625 51.222656 -190.007812 54.171875 -186.96875 C 57.117188 -183.9375 58.5 -180.300781 58.3125 -176.0625 C 58.132812 -172.1875 56.660156 -168.5 53.890625 -165 C 51.128906 -161.5 47.765625 -158.644531 43.796875 -156.4375 C 39.835938 -154.226562 35.742188 -153.210938 31.515625 -153.390625 Z M 25.703125 -37.3125 L 25.421875 -90.109375 C 25.421875 -95.453125 24.773438 -99.503906 23.484375 -102.265625 C 22.203125 -105.023438 20.6875 -107.050781 18.9375 -108.34375 C 17.1875 -109.632812 15.617188 -110.832031 14.234375 -111.9375 C 12.847656 -113.039062 12.15625 -114.695312 12.15625 -116.90625 C 12.15625 -118.382812 12.707031 -119.675781 13.8125 -120.78125 C 14.925781 -121.882812 17.140625 -123.175781 20.453125 -124.65625 C 26.347656 -127.601562 32.425781 -130.085938 38.6875 -132.109375 C 44.957031 -134.140625 49.101562 -135.25 51.125 -135.4375 C 55.1875 -135.4375 57.21875 -133.039062 57.21875 -128.25 L 56.9375 -90.109375 L 56.9375 -37.3125 C 56.9375 -30.863281 57.582031 -26.070312 58.875 -22.9375 C 60.164062 -19.800781 61.6875 -17.492188 63.4375 -16.015625 C 65.1875 -14.546875 66.703125 -13.210938 67.984375 -12.015625 C 69.273438 -10.816406 69.921875 -8.835938 69.921875 -6.078125 C 69.921875 -3.679688 68.953125 -2.066406 67.015625 -1.234375 C 65.085938 -0.410156 62.28125 0 58.59375 0 L 24.046875 0 C 20.546875 0 17.6875 -0.457031 15.46875 -1.375 C 13.257812 -2.300781 12.15625 -3.960938 12.15625 -6.359375 C 12.15625 -8.929688 12.847656 -10.816406 14.234375 -12.015625 C 15.617188 -13.210938 17.1875 -14.546875 18.9375 -16.015625 C 20.6875 -17.492188 22.25 -19.800781 23.625 -22.9375 C 25.007812 -26.070312 25.703125 -30.863281 25.703125 -37.3125 Z M 25.703125 -37.3125 "/></g></g></g><g fill="#2a9d8f" fill-opacity="1"><g transform="translate(215.405495, 194.694814)"><g><path d="M 150.078125 -77.9375 L 159.203125 -30.125 C 160.117188 -25.882812 161.359375 -22.613281 162.921875 -20.3125 C 164.492188 -18.007812 166.0625 -16.257812 167.625 -15.0625 C 169.195312 -13.863281 170.582031 -12.617188 171.78125 -11.328125 C 172.976562 -10.035156 173.578125 -8.285156 173.578125 -6.078125 C 173.578125 -3.679688 172.609375 -2.066406 170.671875 -1.234375 C 168.734375 -0.410156 165.921875 0 162.234375 0 L 128.25 0 C 124.75 0 121.890625 -0.457031 119.671875 -1.375 C 117.460938 -2.300781 116.359375 -3.960938 116.359375 -6.359375 C 116.359375 -8.566406 117.09375 -10.269531 118.5625 -11.46875 C 120.039062 -12.664062 121.609375 -13.953125 123.265625 -15.328125 C 124.921875 -16.710938 126.300781 -18.648438 127.40625 -21.140625 C 128.519531 -23.628906 128.613281 -27.085938 127.6875 -31.515625 L 119.40625 -76.28125 C 118.300781 -82.914062 116.734375 -89.179688 114.703125 -95.078125 C 112.671875 -100.972656 109.71875 -105.804688 105.84375 -109.578125 C 101.976562 -113.359375 96.363281 -115.160156 89 -114.984375 C 83.65625 -114.984375 78.492188 -113.320312 73.515625 -110 C 68.546875 -106.6875 64.492188 -101.804688 61.359375 -95.359375 C 58.222656 -88.910156 56.65625 -80.894531 56.65625 -71.3125 L 56.65625 -37.3125 C 56.65625 -30.863281 57.300781 -26.070312 58.59375 -22.9375 C 59.882812 -19.800781 61.40625 -17.492188 63.15625 -16.015625 C 64.90625 -14.546875 66.425781 -13.210938 67.71875 -12.015625 C 69.007812 -10.816406 69.65625 -8.835938 69.65625 -6.078125 C 69.65625 -3.679688 68.6875 -2.066406 66.75 -1.234375 C 64.8125 -0.410156 62 0 58.3125 0 L 23.5 0 C 19.988281 0 17.175781 -0.457031 15.0625 -1.375 C 12.945312 -2.300781 11.890625 -3.960938 11.890625 -6.359375 C 11.890625 -8.929688 12.578125 -10.816406 13.953125 -12.015625 C 15.335938 -13.210938 16.90625 -14.546875 18.65625 -16.015625 C 20.40625 -17.492188 21.96875 -19.800781 23.34375 -22.9375 C 24.726562 -26.070312 25.421875 -30.863281 25.421875 -37.3125 L 25.421875 -91.484375 C 25.421875 -95.722656 24.773438 -99.40625 23.484375 -102.53125 C 22.203125 -105.664062 19.992188 -108.25 16.859375 -110.28125 C 15.566406 -111.195312 14.414062 -112.207031 13.40625 -113.3125 C 12.394531 -114.425781 11.890625 -115.8125 11.890625 -117.46875 C 11.890625 -119.3125 12.441406 -120.832031 13.546875 -122.03125 C 14.648438 -123.226562 16.859375 -124.5625 20.171875 -126.03125 C 25.148438 -128.238281 30.445312 -130.21875 36.0625 -131.96875 C 41.6875 -133.726562 45.515625 -134.695312 47.546875 -134.875 C 51.410156 -134.875 53.34375 -132.476562 53.34375 -127.6875 L 53.0625 -107.234375 C 58.40625 -116.628906 65.359375 -123.675781 73.921875 -128.375 C 82.492188 -133.082031 91.296875 -135.4375 100.328125 -135.4375 C 115.066406 -135.4375 126.164062 -130.78125 133.625 -121.46875 C 141.09375 -112.164062 146.578125 -97.65625 150.078125 -77.9375 Z M 150.078125 -77.9375 "/></g></g></g><g fill="#2a9d8f" fill-opacity="1"><g transform="translate(377.356098, 194.694814)"><g><path d="M 129.625 -38.96875 C 132.207031 -41.550781 134.601562 -42.101562 136.8125 -40.625 C 139.019531 -39.15625 139.390625 -36.578125 137.921875 -32.890625 C 136.078125 -28.097656 132.4375 -22.9375 127 -17.40625 C 121.5625 -11.882812 114.46875 -7.140625 105.71875 -3.171875 C 96.96875 0.785156 86.601562 2.765625 74.625 2.765625 C 61.726562 2.765625 50.347656 -0.0390625 40.484375 -5.65625 C 30.628906 -11.28125 22.984375 -18.972656 17.546875 -28.734375 C 12.109375 -38.503906 9.390625 -49.5625 9.390625 -61.90625 C 9.390625 -75.914062 12.519531 -88.445312 18.78125 -99.5 C 25.050781 -110.550781 33.578125 -119.300781 44.359375 -125.75 C 55.140625 -132.207031 67.070312 -135.4375 80.15625 -135.4375 C 96 -135.4375 108.710938 -131.332031 118.296875 -123.125 C 127.878906 -114.925781 133.773438 -104.929688 135.984375 -93.140625 C 136.347656 -90.742188 136.113281 -88.578125 135.28125 -86.640625 C 134.457031 -84.710938 132.570312 -83.195312 129.625 -82.09375 C 115.070312 -76.007812 101.019531 -70.476562 87.46875 -65.5 C 73.925781 -60.53125 59.507812 -55.375 44.21875 -50.03125 C 46.0625 -45.238281 48.867188 -40.535156 52.640625 -35.921875 C 56.421875 -31.316406 61.210938 -27.492188 67.015625 -24.453125 C 72.828125 -21.421875 79.691406 -19.90625 87.609375 -19.90625 C 96.453125 -19.90625 104.421875 -21.789062 111.515625 -25.5625 C 118.617188 -29.34375 124.65625 -33.8125 129.625 -38.96875 Z M 69.921875 -119.953125 C 63.109375 -119.585938 57.394531 -117.46875 52.78125 -113.59375 C 48.175781 -109.726562 44.722656 -104.890625 42.421875 -99.078125 C 40.117188 -93.273438 38.96875 -87.242188 38.96875 -80.984375 C 38.96875 -77.660156 39.101562 -74.523438 39.375 -71.578125 C 39.65625 -68.628906 40.164062 -66.050781 40.90625 -63.84375 C 50.664062 -66.976562 60.195312 -70.203125 69.5 -73.515625 C 78.8125 -76.835938 87.796875 -80.25 96.453125 -83.75 C 98.671875 -84.664062 100.378906 -85.859375 101.578125 -87.328125 C 102.773438 -88.804688 103.003906 -91.019531 102.265625 -93.96875 C 100.609375 -102.257812 96.597656 -108.847656 90.234375 -113.734375 C 83.878906 -118.617188 77.109375 -120.691406 69.921875 -119.953125 Z M 69.921875 -119.953125 "/></g></g></g><g fill="#2a9d8f" fill-opacity="1"><g transform="translate(510.011606, 194.694814)"><g><path d="M 92.3125 -135.4375 C 100.050781 -135.4375 105.804688 -133.316406 109.578125 -129.078125 C 113.359375 -124.835938 115.25 -119.769531 115.25 -113.875 C 115.25 -109.445312 114.097656 -105.664062 111.796875 -102.53125 C 109.492188 -99.40625 106.59375 -97.84375 103.09375 -97.84375 C 99.957031 -97.84375 97.46875 -98.488281 95.625 -99.78125 C 93.789062 -101.070312 92.179688 -102.59375 90.796875 -104.34375 C 89.410156 -106.09375 87.75 -107.609375 85.8125 -108.890625 C 83.882812 -110.179688 81.257812 -110.828125 77.9375 -110.828125 C 72.414062 -110.828125 67.488281 -107.507812 63.15625 -100.875 C 58.820312 -94.25 56.65625 -85.40625 56.65625 -74.34375 L 56.65625 -37.3125 C 56.65625 -30.863281 57.300781 -26.070312 58.59375 -22.9375 C 59.882812 -19.800781 61.40625 -17.492188 63.15625 -16.015625 C 64.90625 -14.546875 66.425781 -13.210938 67.71875 -12.015625 C 69.007812 -10.816406 69.65625 -8.835938 69.65625 -6.078125 C 69.65625 -3.679688 68.6875 -2.066406 66.75 -1.234375 C 64.8125 -0.410156 62 0 58.3125 0 L 23.5 0 C 19.988281 0 17.175781 -0.457031 15.0625 -1.375 C 12.945312 -2.300781 11.890625 -3.960938 11.890625 -6.359375 C 11.890625 -8.929688 12.578125 -10.816406 13.953125 -12.015625 C 15.335938 -13.210938 16.90625 -14.546875 18.65625 -16.015625 C 20.40625 -17.492188 21.96875 -19.800781 23.34375 -22.9375 C 24.726562 -26.070312 25.421875 -30.863281 25.421875 -37.3125 L 25.421875 -91.484375 C 25.421875 -95.722656 24.773438 -99.40625 23.484375 -102.53125 C 22.203125 -105.664062 19.992188 -108.25 16.859375 -110.28125 C 15.566406 -111.195312 14.414062 -112.207031 13.40625 -113.3125 C 12.394531 -114.425781 11.890625 -115.8125 11.890625 -117.46875 C 11.890625 -119.3125 12.441406 -120.832031 13.546875 -122.03125 C 14.648438 -123.226562 16.859375 -124.5625 20.171875 -126.03125 C 25.148438 -128.238281 30.445312 -130.21875 36.0625 -131.96875 C 41.6875 -133.726562 45.515625 -134.695312 47.546875 -134.875 C 51.410156 -134.875 53.34375 -132.476562 53.34375 -127.6875 L 53.0625 -108.625 C 57.851562 -116.914062 63.75 -123.457031 70.75 -128.25 C 77.757812 -133.039062 84.945312 -135.4375 92.3125 -135.4375 Z M 92.3125 -135.4375 "/></g></g></g><g fill="#2a9d8f" fill-opacity="1"><g transform="translate(621.38678, 194.694814)"><g><path d="M 111.65625 -21 C 124.925781 -21 134.96875 -17.957031 141.78125 -11.875 C 148.601562 -5.800781 152.015625 1.75 152.015625 10.78125 C 152.015625 24.78125 144.96875 36.203125 130.875 45.046875 C 116.78125 53.890625 97.382812 58.3125 72.6875 58.3125 C 62.550781 58.3125 52.691406 57.160156 43.109375 54.859375 C 33.535156 52.554688 25.660156 48.914062 19.484375 43.9375 C 13.304688 38.96875 10.21875 32.429688 10.21875 24.328125 C 10.21875 20.085938 11.738281 15.707031 14.78125 11.1875 C 17.820312 6.675781 22.289062 3.128906 28.1875 0.546875 C 23.582031 -1.660156 19.578125 -4.789062 16.171875 -8.84375 C 12.765625 -12.894531 11.0625 -17.78125 11.0625 -23.5 C 11.0625 -27.914062 12.671875 -32.425781 15.890625 -37.03125 C 19.117188 -41.644531 24.691406 -45.515625 32.609375 -48.640625 C 19.898438 -56.753906 13.546875 -68.085938 13.546875 -82.640625 C 13.546875 -92.410156 16.351562 -101.253906 21.96875 -109.171875 C 27.59375 -117.097656 35.238281 -123.410156 44.90625 -128.109375 C 54.582031 -132.804688 65.410156 -135.25 77.390625 -135.4375 L 81.53125 -135.4375 C 85.582031 -135.25 88.625 -135.015625 90.65625 -134.734375 C 92.6875 -134.460938 95.082031 -134.328125 97.84375 -134.328125 C 100.976562 -134.328125 104.570312 -135.523438 108.625 -137.921875 C 112.675781 -140.316406 116.726562 -144.1875 120.78125 -149.53125 C 122.257812 -151.375 123.828125 -152.894531 125.484375 -154.09375 C 127.140625 -155.289062 129.070312 -155.890625 131.28125 -155.890625 C 134.050781 -155.890625 136.539062 -154.875 138.75 -152.84375 C 140.957031 -150.8125 142.0625 -148.234375 142.0625 -145.109375 C 142.0625 -139.390625 139.523438 -134.640625 134.453125 -130.859375 C 129.390625 -127.085938 123.632812 -124.554688 117.1875 -123.265625 C 127.507812 -114.972656 132.671875 -104.101562 132.671875 -90.65625 C 132.671875 -80.882812 130.085938 -72.128906 124.921875 -64.390625 C 119.765625 -56.660156 112.578125 -50.535156 103.359375 -46.015625 C 94.148438 -41.503906 83.375 -39.15625 71.03125 -38.96875 C 60.707031 -38.96875 51.679688 -40.347656 43.953125 -43.109375 C 42.285156 -42.003906 40.804688 -40.53125 39.515625 -38.6875 C 38.234375 -36.851562 37.59375 -34.921875 37.59375 -32.890625 C 37.59375 -27.179688 40.492188 -23.40625 46.296875 -21.5625 C 52.097656 -19.71875 58.6875 -18.796875 66.0625 -18.796875 C 73.800781 -18.796875 82 -19.160156 90.65625 -19.890625 C 99.3125 -20.628906 106.3125 -21 111.65625 -21 Z M 71.3125 -122.4375 C 63.570312 -122.4375 57.117188 -119.625 51.953125 -114 C 46.796875 -108.382812 44.21875 -101.0625 44.21875 -92.03125 C 44.40625 -85.03125 45.695312 -78.441406 48.09375 -72.265625 C 50.488281 -66.097656 54.035156 -61.171875 58.734375 -57.484375 C 63.429688 -53.804688 69.003906 -51.96875 75.453125 -51.96875 C 83.554688 -51.96875 89.957031 -54.820312 94.65625 -60.53125 C 99.363281 -66.238281 101.71875 -73.609375 101.71875 -82.640625 C 101.71875 -89.273438 100.5625 -95.628906 98.25 -101.703125 C 95.945312 -107.785156 92.582031 -112.757812 88.15625 -116.625 C 83.738281 -120.5 78.125 -122.4375 71.3125 -122.4375 Z M 79.59375 44.5 C 93.050781 44.5 103.648438 42.472656 111.390625 38.421875 C 119.128906 34.367188 123 28.65625 123 21.28125 C 123 17.414062 121.523438 13.820312 118.578125 10.5 C 115.628906 7.1875 109.546875 5.710938 100.328125 6.078125 C 94.066406 6.265625 87.523438 6.585938 80.703125 7.046875 C 73.890625 7.503906 66.148438 7.644531 57.484375 7.46875 C 52.691406 7.46875 48.175781 8.707031 43.9375 11.1875 C 39.707031 13.675781 37.59375 17.59375 37.59375 22.9375 C 37.59375 29.9375 41.460938 35.28125 49.203125 38.96875 C 56.941406 42.65625 67.070312 44.5 79.59375 44.5 Z M 79.59375 44.5 "/></g></g></g><g fill="#2a9d8f" fill-opacity="1"><g transform="translate(762.333385, 194.694814)"><g><path d="M 31.515625 -153.390625 C 26.898438 -153.578125 23.253906 -155.144531 20.578125 -158.09375 C 17.910156 -161.039062 16.671875 -164.539062 16.859375 -168.59375 C 17.046875 -172.46875 18.425781 -176.242188 21 -179.921875 C 23.582031 -183.609375 26.898438 -186.601562 30.953125 -188.90625 C 35.003906 -191.21875 39.148438 -192.1875 43.390625 -191.8125 C 47.628906 -191.625 51.222656 -190.007812 54.171875 -186.96875 C 57.117188 -183.9375 58.5 -180.300781 58.3125 -176.0625 C 58.132812 -172.1875 56.660156 -168.5 53.890625 -165 C 51.128906 -161.5 47.765625 -158.644531 43.796875 -156.4375 C 39.835938 -154.226562 35.742188 -153.210938 31.515625 -153.390625 Z M 25.703125 -37.3125 L 25.421875 -90.109375 C 25.421875 -95.453125 24.773438 -99.503906 23.484375 -102.265625 C 22.203125 -105.023438 20.6875 -107.050781 18.9375 -108.34375 C 17.1875 -109.632812 15.617188 -110.832031 14.234375 -111.9375 C 12.847656 -113.039062 12.15625 -114.695312 12.15625 -116.90625 C 12.15625 -118.382812 12.707031 -119.675781 13.8125 -120.78125 C 14.925781 -121.882812 17.140625 -123.175781 20.453125 -124.65625 C 26.347656 -127.601562 32.425781 -130.085938 38.6875 -132.109375 C 44.957031 -134.140625 49.101562 -135.25 51.125 -135.4375 C 55.1875 -135.4375 57.21875 -133.039062 57.21875 -128.25 L 56.9375 -90.109375 L 56.9375 -37.3125 C 56.9375 -30.863281 57.582031 -26.070312 58.875 -22.9375 C 60.164062 -19.800781 61.6875 -17.492188 63.4375 -16.015625 C 65.1875 -14.546875 66.703125 -13.210938 67.984375 -12.015625 C 69.273438 -10.816406 69.921875 -8.835938 69.921875 -6.078125 C 69.921875 -3.679688 68.953125 -2.066406 67.015625 -1.234375 C 65.085938 -0.410156 62.28125 0 58.59375 0 L 24.046875 0 C 20.546875 0 17.6875 -0.457031 15.46875 -1.375 C 13.257812 -2.300781 12.15625 -3.960938 12.15625 -6.359375 C 12.15625 -8.929688 12.847656 -10.816406 14.234375 -12.015625 C 15.617188 -13.210938 17.1875 -14.546875 18.9375 -16.015625 C 20.6875 -17.492188 22.25 -19.800781 23.625 -22.9375 C 25.007812 -26.070312 25.703125 -30.863281 25.703125 -37.3125 Z M 25.703125 -37.3125 "/></g></g></g><g fill="#2a9d8f" fill-opacity="1"><g transform="translate(829.489538, 194.694814)"><g><path d="M 130.1875 -43.390625 C 132.019531 -42.835938 132.9375 -41.640625 132.9375 -39.796875 C 132.9375 -37.953125 132.753906 -35.742188 132.390625 -33.171875 C 132.023438 -29.296875 131.425781 -25.742188 130.59375 -22.515625 C 129.757812 -19.296875 128.882812 -16.117188 127.96875 -12.984375 C 126.675781 -8.929688 124.96875 -5.753906 122.84375 -3.453125 C 120.726562 -1.148438 117.550781 0 113.3125 0 L 16.03125 0 C 12.71875 0 10.503906 -0.960938 9.390625 -2.890625 C 8.285156 -4.828125 8.75 -7.269531 10.78125 -10.21875 L 89.828125 -118.296875 L 63.84375 -118.296875 C 54.8125 -118.296875 46.929688 -116.3125 40.203125 -112.34375 C 33.484375 -108.382812 27.632812 -103.457031 22.65625 -97.5625 C 21 -95.539062 19.390625 -93.929688 17.828125 -92.734375 C 16.265625 -91.535156 14.46875 -91.300781 12.4375 -92.03125 C 10.78125 -92.769531 9.8125 -94.109375 9.53125 -96.046875 C 9.257812 -97.984375 9.398438 -100.148438 9.953125 -102.546875 C 10.691406 -105.671875 11.566406 -108.753906 12.578125 -111.796875 C 13.585938 -114.835938 14.738281 -117.832031 16.03125 -120.78125 C 17.5 -124.832031 19.335938 -127.828125 21.546875 -129.765625 C 23.765625 -131.703125 26.992188 -132.671875 31.234375 -132.671875 L 124.921875 -132.671875 C 128.242188 -132.671875 130.457031 -131.703125 131.5625 -129.765625 C 132.664062 -127.828125 132.207031 -125.382812 130.1875 -122.4375 L 51.125 -14.375 L 80.703125 -14.375 C 89.734375 -14.375 97.425781 -16.445312 103.78125 -20.59375 C 110.132812 -24.738281 115.617188 -30.21875 120.234375 -37.03125 C 121.703125 -39.25 123.265625 -41 124.921875 -42.28125 C 126.585938 -43.570312 128.34375 -43.941406 130.1875 -43.390625 Z M 130.1875 -43.390625 "/></g></g></g><g fill="#2a9d8f" fill-opacity="1"><g transform="translate(957.723105, 194.694814)"><g><path d="M 148.140625 -19.078125 C 151.640625 -19.441406 153.390625 -18.148438 153.390625 -15.203125 C 153.390625 -12.617188 152.144531 -9.988281 149.65625 -7.3125 C 147.175781 -4.644531 143.953125 -2.4375 139.984375 -0.6875 C 136.023438 1.0625 131.925781 1.9375 127.6875 1.9375 C 121.238281 1.9375 116.445312 0.140625 113.3125 -3.453125 C 110.1875 -7.046875 107.882812 -12.253906 106.40625 -19.078125 C 100.144531 -11.703125 92.679688 -6.265625 84.015625 -2.765625 C 75.359375 0.734375 66.976562 2.484375 58.875 2.484375 C 42.65625 2.484375 29.9375 -1.472656 20.71875 -9.390625 C 11.507812 -17.316406 6.90625 -27.175781 6.90625 -38.96875 C 6.90625 -47.8125 9.390625 -55.597656 14.359375 -62.328125 C 19.335938 -69.054688 26.296875 -74.351562 35.234375 -78.21875 C 44.171875 -82.082031 54.722656 -84.015625 66.890625 -84.015625 C 71.679688 -84.015625 75.960938 -83.785156 79.734375 -83.328125 C 83.515625 -82.867188 87.894531 -82.179688 92.875 -81.265625 C 91.207031 -87.890625 89.269531 -93.78125 87.0625 -98.9375 C 84.851562 -104.101562 81.765625 -108.160156 77.796875 -111.109375 C 73.835938 -114.054688 68.175781 -115.53125 60.8125 -115.53125 C 53.800781 -115.53125 47.441406 -114.46875 41.734375 -112.34375 C 36.023438 -110.226562 30.5 -107.601562 25.15625 -104.46875 C 22.570312 -102.8125 20.359375 -102.8125 18.515625 -104.46875 C 16.671875 -106.132812 16.671875 -108.53125 18.515625 -111.65625 C 20.910156 -115.15625 24.640625 -118.703125 29.703125 -122.296875 C 34.773438 -125.890625 40.90625 -128.929688 48.09375 -131.421875 C 55.28125 -133.910156 63.109375 -135.15625 71.578125 -135.15625 C 82.640625 -135.15625 91.441406 -133.035156 97.984375 -128.796875 C 104.523438 -124.554688 109.59375 -119.023438 113.1875 -112.203125 C 116.78125 -105.390625 119.492188 -98.023438 121.328125 -90.109375 L 134.609375 -34 C 136.078125 -27.726562 137.960938 -23.671875 140.265625 -21.828125 C 142.566406 -19.992188 145.191406 -19.078125 148.140625 -19.078125 Z M 69.375 -13.8125 C 75.269531 -13.8125 80.84375 -15.054688 86.09375 -17.546875 C 91.34375 -20.035156 95.488281 -23.164062 98.53125 -26.9375 C 101.570312 -30.71875 102.722656 -34.546875 101.984375 -38.421875 C 101.617188 -41.179688 100.925781 -44.445312 99.90625 -48.21875 C 98.894531 -52 97.65625 -56.5625 96.1875 -61.90625 C 95.8125 -64.125 94.195312 -65.921875 91.34375 -67.296875 C 88.488281 -68.679688 85.21875 -69.648438 81.53125 -70.203125 C 77.84375 -70.753906 74.523438 -71.03125 71.578125 -71.03125 C 60.523438 -71.03125 52.050781 -68.539062 46.15625 -63.5625 C 40.257812 -58.59375 37.40625 -51.867188 37.59375 -43.390625 C 37.957031 -34.910156 40.945312 -27.859375 46.5625 -22.234375 C 52.1875 -16.617188 59.789062 -13.8125 69.375 -13.8125 Z M 69.375 -13.8125 "/></g></g></g></g></g></g></svg>